<?xml version="1.0" encoding="utf-8"?>
<!-- Generated by IcoMoon.io -->
<!DOCTYPE svg PUBLIC "-//W3C//DTD SVG 1.1//EN" "http://www.w3.org/Graphics/SVG/1.1/DTD/svg11.dtd">
<svg version="1.1" xmlns="http://www.w3.org/2000/svg" xmlns:xlink="http://www.w3.org/1999/xlink" width="40" height="40" viewBox="0 0 40 40">
<g id="icomoon-ignore">
	<line stroke-width="1" x1="" y1="" x2="" y2="" stroke="#449FDB" opacity=""></line>
</g>
	<path d="M20 0c-6.904 0-12.5 5.596-12.5 12.5 0 12.5 12.5 27.5 12.5 27.5s12.5-15 12.5-27.5c0-6.904-5.596-12.5-12.5-12.5zM20 20.156c-4.228 0-7.656-3.428-7.656-7.656s3.428-7.656 7.656-7.656 7.656 3.428 7.656 7.656-3.428 7.656-7.656 7.656zM15.156 12.5c0-2.675 2.169-4.844 4.844-4.844s4.844 2.169 4.844 4.844c0 2.675-2.169 4.844-4.844 4.844s-4.844-2.169-4.844-4.844z" fill="#2980b9"></path>
</svg>
